<?xml version="1.0" encoding="UTF-8"?>
<!DOCTYPE svg PUBLIC "-//W3C//DTD SVG 1.1//EN" "http://www.w3.org/Graphics/SVG/1.1/DTD/svg11.dtd">
<!-- Creator: CorelDRAW X7 -->
<svg xmlns="http://www.w3.org/2000/svg" xml:space="preserve" width="210mm" height="297mm" version="1.1" style="shape-rendering:geometricPrecision; text-rendering:geometricPrecision; image-rendering:optimizeQuality; fill-rule:evenodd; clip-rule:evenodd"
viewBox="0 0 21000 29700"
 xmlns:xlink="http://www.w3.org/1999/xlink">
 <defs>
  <style type="text/css">
   <![CDATA[
    .fil1 {fill:#96989A}
    .fil0 {fill:#EC268F}
   ]]>
  </style>
 </defs>
 <g id="Capa_x0020_1">
  <metadata id="CorelCorpID_0Corel-Layer"/>
  <path class="fil0" d="M4304 19773c-108,0 -204,-17 -287,-51 -84,-34 -155,-81 -214,-140 -58,-58 -103,-126 -133,-203 -31,-77 -46,-158 -46,-242 0,-120 27,-230 81,-328 53,-99 131,-178 232,-239 102,-61 224,-91 367,-91 143,0 264,30 365,90 100,60 177,139 230,236 53,97 80,203 80,317 0,22 -2,44 -4,65 -2,21 -4,40 -6,56l-935 0c5,55 20,101 47,138 26,37 60,66 102,86 42,19 86,29 133,29 58,0 112,-14 162,-41 51,-27 86,-64 105,-111l328 92c-32,66 -77,124 -136,175 -59,50 -128,90 -207,119 -80,29 -168,43 -264,43zm-280 -766l550 0c-7,-51 -22,-95 -46,-132 -24,-38 -56,-67 -97,-88 -40,-21 -84,-31 -132,-31 -50,0 -95,10 -134,31 -39,21 -71,50 -95,88 -24,37 -40,81 -46,132zm1131 250l-3 -344 740 2 3 345 -740 -3zm2384 492l0 -1020 -369 743 -217 0 -369 -743 0 1020 -395 0 0 -1711 429 0 443 894 446 -894 427 0 0 1711 -395 0zm1923 -342l3 342 -1201 0 -2 -1711 1179 0 2 347 -788 -5 2 337 673 3 2 318 -677 0 2 364 805 5zm244 342l0 -1711 771 0c81,0 155,16 223,49 68,33 128,77 177,133 50,55 89,117 117,186 28,70 42,139 42,210 0,71 -11,138 -33,201 -23,64 -55,121 -97,172 -41,50 -91,92 -149,124l376 636 -436 0 -328 -552 -268 0 0 552 -395 0zm395 -897l362 0c32,0 60,-10 85,-30 25,-20 46,-48 62,-83 16,-35 24,-76 24,-123 0,-46 -9,-87 -28,-122 -18,-34 -41,-61 -69,-80 -27,-20 -56,-29 -86,-29l-350 0 0 467zm1107 25c0,-105 19,-207 57,-308 39,-100 95,-191 169,-273 74,-82 164,-148 270,-197 106,-49 227,-73 362,-73 160,0 300,34 418,103 118,69 206,159 264,270l-304 212c-25,-61 -60,-108 -102,-142 -43,-34 -89,-57 -140,-71 -51,-14 -99,-20 -146,-20 -75,0 -141,14 -198,44 -56,30 -102,70 -139,119 -37,50 -65,106 -82,167 -18,61 -27,122 -27,183 0,67 11,133 32,195 20,63 51,118 90,167 39,48 87,86 143,114 57,28 118,42 186,42 48,0 97,-8 147,-24 50,-16 96,-41 139,-76 42,-34 75,-80 97,-136l323 190c-33,84 -89,156 -166,215 -77,59 -164,105 -262,136 -97,32 -193,47 -288,47 -123,0 -237,-25 -341,-76 -103,-50 -193,-118 -267,-202 -75,-85 -133,-179 -174,-285 -41,-105 -61,-212 -61,-321zm2162 -839l427 0 588 1711 -405 0 -116 -383 -564 0 -116 383 -405 0 591 -1711zm411 1055l-199 -658 -199 658 398 0zm773 656l0 -1711 638 0c188,0 345,38 472,114 126,76 221,179 285,309 65,129 97,272 97,430 0,174 -36,325 -106,453 -71,129 -170,228 -298,299 -128,71 -278,106 -450,106l-638 0zm1089 -858c0,-100 -18,-188 -53,-264 -35,-76 -87,-136 -154,-178 -68,-43 -149,-64 -244,-64l-243 0 0 1017 243 0c97,0 178,-22 245,-66 67,-44 118,-106 153,-183 35,-78 53,-166 53,-262zm1386 870c-128,0 -244,-24 -348,-73 -104,-49 -193,-115 -268,-198 -74,-83 -132,-176 -172,-280 -40,-103 -60,-211 -60,-321 0,-115 21,-223 64,-326 42,-103 102,-195 178,-276 76,-81 167,-145 271,-192 105,-46 219,-69 342,-69 127,0 243,24 346,73 104,49 193,115 268,199 75,84 132,177 172,281 40,103 61,209 61,317 0,114 -21,222 -63,325 -42,103 -101,195 -179,276 -77,81 -167,146 -271,193 -103,48 -217,71 -341,71zm-446 -868c0,66 10,130 29,192 19,62 48,117 86,165 38,48 85,87 141,116 56,29 120,43 193,43 75,0 141,-15 197,-44 57,-30 103,-70 140,-120 37,-49 65,-105 83,-167 19,-62 28,-125 28,-189 0,-66 -10,-130 -29,-191 -19,-61 -48,-116 -87,-165 -38,-49 -86,-87 -142,-114 -56,-28 -120,-41 -190,-41 -76,0 -141,14 -197,43 -55,29 -102,68 -140,117 -37,49 -66,104 -84,166 -19,62 -28,125 -28,189z"/>
  <path class="fil1" d="M3945 21121c-6,2 -15,6 -27,12 -12,6 -27,11 -44,15 -17,4 -35,6 -55,6 -21,0 -41,-3 -59,-11 -18,-8 -32,-20 -43,-36 -11,-17 -16,-36 -16,-60l0 -401 -77 0 0 -57 77 0 0 -188 73 0 0 188 128 0 0 57 -128 0 0 381c1,20 8,35 22,45 13,10 28,15 45,15 20,0 38,-3 55,-10 16,-7 26,-12 29,-15l20 59zm85 -206l0 -326 73 0 0 313c0,63 11,110 33,141 21,32 54,47 96,47 29,0 57,-6 83,-18 27,-13 51,-31 71,-54 21,-23 37,-49 47,-80l0 -349 73 0 0 467c0,10 2,17 7,22 4,5 10,7 19,8l0 58c-9,0 -15,1 -20,1 -5,1 -10,1 -14,1 -15,-2 -27,-7 -37,-17 -11,-10 -16,-22 -17,-36l-2 -75c-24,43 -57,76 -99,100 -42,24 -87,36 -135,36 -59,0 -103,-20 -133,-60 -30,-41 -45,-100 -45,-179zm1154 239c-40,0 -77,-7 -111,-23 -34,-15 -64,-36 -89,-62 -25,-27 -44,-58 -58,-92 -14,-35 -21,-73 -21,-112 0,-52 12,-99 36,-143 24,-43 57,-77 99,-103 42,-26 90,-39 143,-39 55,0 103,13 144,39 41,27 73,61 97,104 23,43 35,90 35,141 0,5 0,11 0,16 0,5 0,10 -1,12l-477 0c4,40 15,75 34,106 19,31 43,56 73,74 31,18 64,27 99,27 37,0 71,-9 104,-28 32,-18 55,-43 68,-73l63 17c-12,27 -29,51 -53,72 -23,21 -51,38 -83,50 -31,12 -65,17 -102,17zm-205 -314l412 0c-3,-40 -14,-76 -33,-106 -19,-30 -43,-54 -74,-71 -30,-18 -63,-26 -100,-26 -36,0 -69,8 -99,26 -30,17 -55,41 -73,72 -19,30 -30,65 -33,105zm583 45l-1 -66 311 1 1 66 -311 -1zm702 269c-40,0 -78,-7 -111,-22 -34,-16 -64,-37 -89,-64 -25,-27 -45,-58 -59,-92 -14,-35 -21,-72 -21,-111 0,-52 12,-100 35,-143 24,-44 57,-78 99,-103 42,-26 90,-39 145,-39 52,0 98,12 138,36 40,24 70,56 89,97l-71 22c-15,-28 -37,-51 -65,-67 -29,-16 -60,-24 -94,-24 -37,0 -71,10 -102,29 -30,19 -55,45 -73,79 -18,33 -27,71 -27,113 0,42 9,80 28,114 18,34 43,61 74,81 30,20 64,30 101,30 24,0 48,-4 70,-13 23,-8 42,-20 59,-34 17,-15 28,-31 34,-48l71 22c-10,26 -26,50 -49,71 -24,21 -51,37 -82,49 -31,12 -64,17 -100,17zm578 0c-40,0 -77,-7 -111,-23 -34,-15 -63,-36 -88,-62 -24,-27 -43,-57 -57,-92 -13,-34 -20,-71 -20,-109 0,-39 7,-76 20,-111 14,-35 33,-65 58,-92 25,-27 54,-48 88,-63 34,-15 71,-23 110,-22 40,-1 78,7 111,22 34,15 63,36 88,63 25,27 44,57 57,92 14,35 21,72 21,111 0,38 -7,75 -21,109 -13,35 -32,65 -57,92 -24,26 -54,47 -87,62 -34,16 -72,23 -112,23zm-202 -285c0,41 9,79 27,112 18,34 43,60 73,80 31,20 64,30 101,30 38,0 72,-11 102,-30 31,-20 56,-48 74,-82 19,-34 28,-72 28,-112 0,-41 -9,-79 -28,-113 -18,-34 -43,-61 -73,-82 -30,-20 -64,-29 -102,-29 -37,0 -71,10 -102,31 -30,20 -55,47 -73,81 -18,34 -27,72 -27,114zm1430 275l-73 0 0 -309c0,-65 -11,-112 -31,-143 -21,-30 -52,-46 -92,-46 -42,0 -80,15 -113,45 -33,30 -56,68 -70,115l0 338 -73 0 0 -309c0,-66 -10,-113 -30,-143 -20,-31 -50,-46 -92,-46 -41,0 -78,15 -112,44 -33,29 -57,67 -71,115l0 339 -72 0 0 -555 66 0 0 126c24,-43 54,-76 90,-100 37,-23 78,-35 123,-35 46,0 84,13 112,40 29,26 46,60 53,103 25,-47 56,-83 92,-107 36,-24 77,-36 123,-36 31,0 57,6 79,17 22,12 39,28 53,49 13,20 22,46 28,75 7,30 10,62 10,98l0 325zm982 0l-72 0 0 -309c0,-65 -11,-112 -31,-143 -21,-30 -52,-46 -92,-46 -42,0 -80,15 -113,45 -33,30 -57,68 -70,115l0 338 -73 0 0 -309c0,-66 -10,-113 -30,-143 -20,-31 -51,-46 -92,-46 -41,0 -79,15 -112,44 -34,29 -57,67 -71,115l0 339 -72 0 0 -555 66 0 0 126c23,-43 54,-76 90,-100 37,-23 78,-35 123,-35 46,0 83,13 112,40 28,26 46,60 52,103 26,-47 57,-83 93,-107 36,-24 77,-36 122,-36 32,0 58,6 80,17 22,12 39,28 52,49 14,20 23,46 29,75 6,30 9,62 9,98l0 325zm395 10c-40,0 -77,-7 -111,-23 -34,-15 -64,-36 -89,-62 -25,-27 -44,-58 -58,-92 -14,-35 -21,-73 -21,-112 0,-52 12,-99 36,-143 24,-43 57,-77 99,-103 42,-26 89,-39 143,-39 55,0 103,13 144,39 41,27 73,61 97,104 23,43 35,90 35,141 0,5 0,11 0,16 0,5 -1,10 -1,12l-477 0c3,40 15,75 33,106 19,31 44,56 74,74 31,18 64,27 99,27 37,0 71,-9 103,-28 33,-18 55,-43 68,-73l63 17c-11,27 -28,51 -52,72 -24,21 -51,38 -83,50 -32,12 -66,17 -102,17zm-205 -314l411 0c-2,-40 -13,-76 -32,-106 -19,-30 -44,-54 -74,-71 -30,-18 -64,-26 -100,-26 -36,0 -70,8 -99,26 -30,17 -55,41 -74,72 -19,30 -30,65 -32,105zm870 -189c-48,1 -91,15 -128,40 -36,26 -62,61 -77,106l0 347 -73 0 0 -555 69 0 0 131c19,-39 44,-71 76,-95 32,-24 65,-38 101,-41 7,0 13,-1 19,-1 5,0 10,1 13,1l0 67zm322 503c-41,0 -78,-7 -112,-22 -34,-16 -63,-37 -88,-64 -26,-27 -45,-58 -59,-92 -14,-35 -21,-72 -21,-111 0,-52 12,-100 35,-143 24,-44 56,-78 99,-103 42,-26 90,-39 145,-39 52,0 98,12 138,36 40,24 69,56 89,97l-71 22c-16,-28 -37,-51 -66,-67 -28,-16 -59,-24 -93,-24 -37,0 -71,10 -102,29 -30,19 -55,45 -73,79 -18,33 -27,71 -27,113 0,42 9,80 27,114 19,34 44,61 74,81 31,20 65,30 102,30 24,0 47,-4 70,-13 22,-8 42,-20 59,-34 16,-15 28,-31 33,-48l72 22c-10,26 -26,50 -50,71 -23,21 -50,37 -81,49 -31,12 -64,17 -100,17zm581 0c-40,0 -77,-7 -111,-23 -35,-15 -64,-36 -89,-62 -25,-27 -45,-58 -59,-92 -13,-35 -20,-73 -20,-112 0,-52 12,-99 35,-143 24,-43 57,-77 99,-103 42,-26 90,-39 144,-39 55,0 103,13 144,39 41,27 73,61 96,104 24,43 36,90 36,141 0,5 0,11 0,16 0,5 -1,10 -1,12l-477 0c3,40 14,75 33,106 19,31 44,56 74,74 30,18 63,27 99,27 36,0 71,-9 103,-28 33,-18 55,-43 68,-73l63 17c-11,27 -29,51 -52,72 -24,21 -51,38 -83,50 -32,12 -66,17 -102,17zm-206 -314l412 0c-3,-40 -14,-76 -32,-106 -19,-30 -44,-54 -74,-71 -31,-18 -64,-26 -100,-26 -37,0 -70,8 -100,26 -30,17 -54,41 -73,72 -19,30 -30,65 -33,105zm892 304l0 -500 -77 0 0 -57 77 0 0 -15c0,-46 7,-85 20,-118 13,-33 32,-58 57,-75 24,-18 53,-27 87,-27 22,0 43,4 64,10 21,6 39,15 54,26l-23 52c-9,-8 -21,-14 -36,-18 -15,-4 -30,-7 -45,-7 -34,0 -59,14 -78,40 -18,26 -27,65 -27,114l0 18 154 0 0 57 -154 0 0 500 -73 0zm279 -160c0,-34 10,-64 30,-89 20,-26 48,-45 83,-59 36,-14 76,-21 123,-21 27,0 55,3 84,7 29,4 56,11 78,19l0 -47c0,-47 -14,-84 -41,-111 -28,-28 -67,-42 -116,-42 -30,0 -59,6 -88,17 -29,11 -59,27 -90,48l-28 -51c36,-25 72,-44 107,-56 35,-13 70,-19 107,-19 68,0 122,20 162,59 40,39 60,92 60,161l0 256c0,10 2,17 6,22 5,5 12,7 21,8l0 58c-8,0 -15,1 -21,2 -5,1 -10,1 -12,0 -18,-1 -32,-6 -41,-17 -9,-11 -14,-22 -15,-34l-1 -41c-25,32 -57,57 -97,74 -40,18 -81,26 -122,26 -36,0 -68,-7 -97,-22 -29,-16 -51,-36 -67,-62 -16,-26 -25,-54 -25,-86zm374 43c8,-10 14,-20 18,-29 4,-9 6,-17 6,-24l0 -81c-24,-9 -49,-16 -75,-21 -26,-5 -52,-7 -79,-7 -52,0 -94,10 -126,30 -32,21 -48,49 -48,84 0,21 5,40 16,58 11,18 26,33 47,44 21,12 45,18 73,18 35,0 67,-7 98,-20 30,-14 53,-31 70,-52zm403 117l-226 -555 76 0 191 482 191 -482 72 0 -226 555 -78 0zm622 10c-40,0 -77,-7 -110,-23 -34,-15 -63,-36 -88,-62 -25,-27 -44,-57 -57,-92 -14,-34 -21,-71 -21,-109 0,-39 7,-76 21,-111 13,-35 33,-65 57,-92 25,-27 55,-48 89,-63 34,-15 70,-23 109,-22 41,-1 78,7 112,22 33,15 62,36 87,63 25,27 44,57 58,92 14,35 20,72 20,111 0,38 -6,75 -20,109 -14,35 -33,65 -57,92 -25,26 -54,47 -88,62 -34,16 -71,23 -112,23zm-202 -285c0,41 9,79 27,112 19,34 43,60 74,80 30,20 64,30 100,30 38,0 72,-11 103,-30 31,-20 55,-48 74,-82 18,-34 28,-72 28,-112 0,-41 -10,-79 -28,-113 -19,-34 -43,-61 -74,-82 -30,-20 -64,-29 -102,-29 -37,0 -71,10 -101,31 -31,20 -55,47 -74,81 -18,34 -27,72 -27,114zm879 -218c-48,1 -91,15 -128,40 -36,26 -62,61 -77,106l0 347 -73 0 0 -555 69 0 0 131c19,-39 44,-71 76,-95 32,-24 66,-38 101,-41 7,0 14,-1 19,-1 5,0 10,1 13,1l0 67zm98 493l0 -557 71 0 1 557 -72 0zm0 -674l0 -107 71 0 1 107 -72 0zm500 651c-6,2 -15,6 -27,12 -12,6 -26,11 -43,15 -18,4 -36,6 -56,6 -21,0 -40,-3 -58,-11 -19,-8 -33,-20 -44,-36 -10,-17 -16,-36 -16,-60l0 -401 -77 0 0 -57 77 0 0 -188 73 0 0 188 128 0 0 57 -128 0 0 381c1,20 9,35 22,45 13,10 28,15 45,15 20,0 38,-3 55,-10 16,-7 26,-12 30,-15l19 59zm319 33c-40,0 -77,-7 -111,-23 -34,-15 -63,-36 -88,-62 -24,-27 -43,-57 -57,-92 -13,-34 -20,-71 -20,-109 0,-39 7,-76 20,-111 14,-35 33,-65 58,-92 25,-27 54,-48 88,-63 34,-15 71,-23 110,-22 40,-1 77,7 111,22 34,15 63,36 88,63 25,27 44,57 57,92 14,35 21,72 21,111 0,38 -7,75 -21,109 -13,35 -32,65 -57,92 -24,26 -54,47 -87,62 -34,16 -72,23 -112,23zm-202 -285c0,41 9,79 27,112 18,34 43,60 73,80 31,20 64,30 101,30 38,0 72,-11 102,-30 31,-20 56,-48 74,-82 19,-34 28,-72 28,-112 0,-41 -9,-79 -28,-113 -18,-34 -43,-61 -73,-82 -30,-20 -64,-29 -102,-29 -37,0 -71,10 -102,31 -30,20 -55,47 -73,81 -18,34 -27,72 -27,114z"/>
 </g>
</svg>
